<svg xmlns="http://www.w3.org/2000/svg" fill="none" viewBox="0 0 28 40" height="40" width="40">
<path fill="#e32d2d" d="M14 0C6.26 0 0 6.26 0 14C0 24.5 14 40 14 40C14 40 28 24.5 28 14C28 6.26 21.74 0 14 0ZM4 14C4 8.48 8.48 4 14 4C19.52 4 24 8.48 24 14C24 19.76 18.24 28.38 14 33.76C9.84 28.42 4 19.7 4 14ZM9 14C9 11.2386 11.2386 9 14 9C15.7863 9 17.437 9.95299 18.3301 11.5C19.2233 13.047 19.2233 14.953 18.3301 16.5C17.437 18.047 15.7863 19 14 19C11.2386 19 9 16.7614 9 14Z" clip-rule="evenodd" fill-rule="evenodd"></path>
</svg>
