<svg xmlns="http://www.w3.org/2000/svg" viewBox="0 0 39 39"><path d="M26,30 L26,31 L25,32 L25,33 L27,31 L27,30 Z" fill="black"/><path d="M21,30 L20,31 L21,31 Z" fill="black"/><path d="M13,30 L13,33 L14,34 L14,35 L16,37 L23,37 L24,36 L24,35 L16,35 L15,34 L16,33 L16,32 L15,32 Z" fill="black"/><path d="M26,16 L27,16 Z" fill="black"/><path d="M12,16 L14,16 Z" fill="black"/><path d="M18,6 L17,7 L15,7 L11,11 L11,14 L12,13 L14,13 L15,14 L17,14 L19,16 L19,18 L17,20 L15,20 L14,21 L9,21 L9,22 L11,24 L11,25 L12,26 L13,26 L14,25 L15,25 L16,26 L16,28 L21,28 L22,27 L23,27 L24,28 L24,27 L18,27 L17,26 L16,26 L15,25 L18,22 L19,23 L20,23 L21,24 L22,24 L23,23 L24,23 L26,25 L28,25 L28,21 L27,21 L26,22 L25,21 L24,21 L23,20 L22,20 L21,19 L21,16 L23,14 L24,14 L25,13 L27,13 L27,12 L26,11 L26,10 L25,9 L25,8 L24,7 L23,7 L22,6 Z" fill="black"/><path d="M18,22 L19,21 L20,22 L19,23 Z" fill="black"/><path d="M23,0 Z" fill="black"/></svg>