<svg xmlns="http://www.w3.org/2000/svg" fill="none" viewBox="0 0 40 40" height="40" width="40">
<path fill="#e32d2d" d="M2.22222 0H10C11.2222 0 12.2222 1 12.2222 2.22222C12.2222 5 12.6667 7.66667 13.4889 10.1556C13.7333 10.9333 13.5556 11.8 12.9333 12.4222L8.04445 17.3111C11.2444 23.6 16.4 28.7333 22.6889 31.9556L27.5778 27.0667C28.0222 26.6444 28.5778 26.4222 29.1556 26.4222C29.3778 26.4222 29.6222 26.4444 29.8444 26.5333C32.3333 27.3556 35.0222 27.8 37.7778 27.8C39 27.8 40 28.8 40 30.0222V37.7778C40 39 39 40 37.7778 40C16.9111 40 0 23.0889 0 2.22222C0 1 1 0 2.22222 0ZM7.86673 4.44444C8.00006 6.42222 8.3334 8.35556 8.86673 10.2L6.20006 12.8667C5.28895 10.2 4.71118 7.37778 4.51118 4.44444H7.86673ZM29.7778 31.1545C31.6667 31.6878 33.6 32.0212 35.5556 32.1545V35.4656C32.6222 35.2656 29.8 34.6878 27.1111 33.799L29.7778 31.1545Z" clip-rule="evenodd" fill-rule="evenodd"></path>
</svg>
