<?xml version="1.0" encoding="UTF-8"?>
<svg version="1.1" xmlns="http://www.w3.org/2000/svg" width="172" height="172">
<path d="M0 0 C1.82917969 0.04060547 1.82917969 0.04060547 3.6953125 0.08203125 C10.7030173 0.31663044 16.4900083 1.19451721 23 3.75 C24.65839874 4.12229359 26.32201275 4.4793569 28 4.75 C28 5.41 28 6.07 28 6.75 C29.258125 7.059375 30.51625 7.36875 31.8125 7.6875 C38.62638992 9.3630467 38.62638992 9.3630467 40.75 11.5625 C43.06322837 13.81147202 45.44554371 15.14913056 48.265625 16.6796875 C50.90679057 18.30959598 52.87410559 20.50919237 55 22.75 C55.721875 23.28625 56.44375 23.8225 57.1875 24.375 C59 25.75 59 25.75 61 28.75 C61.54914063 29.45511719 62.09828125 30.16023438 62.6640625 30.88671875 C78.85258202 51.94469335 83.59341244 74.63443254 80.59765625 100.90234375 C77.92815976 116.13417666 68.86798968 131.03908071 58.22265625 142.0234375 C57.61744141 142.87808594 57.61744141 142.87808594 57 143.75 C57.33 144.74 57.66 145.73 58 146.75 C56.906875 147.08 55.81375 147.41 54.6875 147.75 C49.62453244 149.61244878 45.66252829 152.73908259 41.41796875 156.0078125 C39 157.75 39 157.75 36 158.75 C35.34 159.41 34.68 160.07 34 160.75 C31.90200436 161.40562364 30.19959601 161.75 28 161.75 C27.67 162.41 27.34 163.07 27 163.75 C10.06716555 170.56401789 -15.42832285 171.72443236 -32.5625 164.8125 C-34.04534422 164.13296832 -35.52479218 163.44595414 -37 162.75 C-38.45315998 162.19460378 -39.91134892 161.65212845 -41.375 161.125 C-44.04476847 160.1123292 -46.49491477 159.09200995 -49 157.75 C-49.70125 157.42 -50.4025 157.09 -51.125 156.75 C-53 155.75 -53 155.75 -55 153.75 C-57.11160875 152.14808992 -59.2412202 150.5722588 -61.375 149 C-64.11267411 146.65342219 -66.24763867 144.15881299 -68.47265625 141.3359375 C-70.16893375 139.57458541 -71.82855145 138.8289526 -74 137.75 C-74.71247732 136.1023962 -75.37400383 134.43236471 -76 132.75 C-76.59683594 132.05261719 -77.19367188 131.35523438 -77.80859375 130.63671875 C-89.6971018 114.97609942 -92.72631018 92.80448358 -91 73.75 C-90.17634874 68.26134825 -88.69022179 63.02763129 -87 57.75 C-86.64164062 56.62851562 -86.28328125 55.50703125 -85.9140625 54.3515625 C-83.38003876 46.94001938 -83.38003876 46.94001938 -81 45.75 C-80.32484889 44.08675221 -79.65973011 42.41942457 -79 40.75 C-73.85681243 32.47449518 -67.34151438 25.13983659 -60 18.75 C-59.34 18.75 -58.68 18.75 -58 18.75 C-58 18.09 -58 17.43 -58 16.75 C-56.2421875 15.7734375 -54.484375 14.796875 -52.7265625 13.8203125 C-50.47579267 12.4250389 -49.18660804 11.12321609 -48 8.75 C-46.33333333 8.41666667 -44.66666667 8.08333333 -43 7.75 C-42.67 7.09 -42.34 6.43 -42 5.75 C-41.34 6.08 -40.68 6.41 -40 6.75 C-37.50695882 6.04789132 -37.50695882 6.04789132 -34.75 4.9375 C-33.26113281 4.37675781 -33.26113281 4.37675781 -31.7421875 3.8046875 C-30.83726563 3.45664063 -29.93234375 3.10859375 -29 2.75 C-19.5564181 -0.83856112 -9.94165014 -0.34680175 0 0 Z " fill="#D60000" transform="translate(91,1.25)"/>
<path d="M0 0 C0.76775757 -0.00365067 1.53551514 -0.00730133 2.32653809 -0.01106262 C4.86562176 -0.01917223 7.40406813 -0.0055562 9.94311523 0.0090332 C11.70523579 0.00955171 13.46735694 0.00903438 15.22947693 0.00752258 C18.92244094 0.00761232 22.61518672 0.01804593 26.30810547 0.03613281 C31.04863664 0.0588367 35.7888493 0.05936128 40.5294199 0.05261517 C44.16760606 0.04927876 47.8057192 0.05589879 51.44389153 0.0657444 C53.19224605 0.06960111 54.94060869 0.07074267 56.68896675 0.06915855 C59.12874039 0.06878894 61.56810077 0.08137803 64.0078125 0.09765625 C64.73461716 0.09517883 65.46142181 0.09270142 66.21025085 0.09014893 C71.21046504 0.1435705 71.21046504 0.1435705 73.43920898 2.37231445 C73.67971802 4.77676392 73.67971802 4.77676392 73.66625977 7.83178711 C73.6661087 8.97281891 73.66595764 10.11385071 73.665802 11.28945923 C73.65547943 12.52594208 73.64515686 13.76242493 73.63452148 15.03637695 C73.63169159 16.29872162 73.62886169 17.56106628 73.62594604 18.86166382 C73.6166303 22.21878389 73.59865734 25.57563357 73.57653809 28.93267822 C73.55608449 32.35784567 73.54694538 35.78304104 73.53686523 39.20825195 C73.51477357 45.92968116 73.48127275 52.65098219 73.43920898 59.37231445 C72.67334473 59.05157959 71.90748047 58.73084473 71.1184082 58.40039062 C64.67206394 55.92676609 56.05770503 55.51913556 49.43920898 57.37231445 C47.15972699 58.86316049 45.4331769 60.46898144 43.43920898 62.37231445 C42.60389648 63.11481445 42.60389648 63.11481445 41.75170898 63.87231445 C36.85714978 69.4660964 36.28721301 75.15697627 36.43920898 82.37231445 C37.0081896 85.90375614 37.70323045 89.22624505 39.43920898 92.37231445 C41.45735731 93.67188888 41.45735731 93.67188888 43.43920898 94.37231445 C43.43920898 94.70231445 43.43920898 95.03231445 43.43920898 95.37231445 C36.07029797 95.44818624 28.70148713 95.50083881 21.33227539 95.53710938 C18.82377356 95.55222475 16.31529827 95.57271743 13.80688477 95.59863281 C10.20769716 95.63489488 6.60885798 95.65201319 3.00952148 95.6652832 C1.88240753 95.68076706 0.75529358 95.69625092 -0.40597534 95.71220398 C-1.44690338 95.71243057 -2.48783142 95.71265717 -3.56030273 95.71289062 C-4.93930252 95.72288338 -4.93930252 95.72288338 -6.34616089 95.733078 C-7.07698883 95.61402603 -7.80781677 95.49497406 -8.56079102 95.37231445 C-11.12523756 91.52564463 -10.84897702 88.3690626 -10.83544922 83.90942383 C-10.84056015 83.04573685 -10.84567108 82.18204987 -10.85093689 81.29219055 C-10.86485254 78.43341164 -10.86387482 75.57487323 -10.86157227 72.71606445 C-10.86545775 70.73213613 -10.86979211 68.74820863 -10.8745575 66.76428223 C-10.88202369 62.60479028 -10.88172527 58.44538321 -10.87646484 54.28588867 C-10.8706658 48.94904089 -10.88760982 43.61253966 -10.91080952 38.27574921 C-10.92552199 34.17858846 -10.92642202 30.0815117 -10.92329979 25.98432922 C-10.92381413 24.01629448 -10.92907285 22.04825518 -10.93911171 20.08024597 C-10.95141242 17.33166795 -10.94472322 14.58377172 -10.93310547 11.83520508 C-10.94074921 11.01848831 -10.94839294 10.20177155 -10.95626831 9.36030579 C-10.9287861 6.42708813 -10.88856147 3.99797712 -9.5100708 1.36665344 C-6.44054582 -0.19912916 -3.36573653 -0.035496 0 0 Z " fill="#FDF8F7" transform="translate(56.560791015625,37.627685546875)"/>
<path d="M0 0 C7.59824984 -0.56986874 13.36407122 2.26849629 19.45703125 6.5234375 C24.13691596 11.00190945 24.69744899 15.80153078 25.0625 21.9921875 C24.939572 27.90809748 23.2877756 31.55891778 19.375 35.9375 C18.59125 36.618125 17.8075 37.29875 17 38 C16.67 38.33 16.34 38.66 16 39 C14.33382885 39.04063832 12.66611905 39.042721 11 39 C11 39.66 11 40.32 11 41 C4.63355847 42.46917881 -1.17157523 42.08785568 -7.25 39.75 C-12.61097391 36.33847115 -16.53339315 32.30982017 -18 26 C-18.38211608 21.9642261 -18.59905557 18.01719616 -18 14 C-16.5703125 12.3046875 -16.5703125 12.3046875 -15 11 C-14.505 10.13375 -14.01 9.2675 -13.5 8.375 C-12 6 -12 6 -9 5 C-8.34 4.01 -7.68 3.02 -7 2 C-3.375 1.8125 -3.375 1.8125 0 2 C0 1.34 0 0.68 0 0 Z " fill="#FDF3F3" transform="translate(113,95)"/>
<path d="M0 0 C3.125 2.4375 3.125 2.4375 5 5 C5.33 5.33 5.66 5.66 6 6 C6.43838457 9.3818238 6.47729001 12.62225531 6 16 C3.56543724 19.15835169 1.30027757 20.79981495 -2 23 C-6.56560235 23.25649451 -10.15979934 22.54262959 -14 20.0625 C-17.53564217 16.41636902 -17.3283676 13.383576 -17.29296875 8.484375 C-16.88537873 5.02801166 -15.53723498 3.31336131 -13 1 C-9.04852828 -0.97573586 -4.29584552 -0.57649875 0 0 Z " fill="#D30608" transform="translate(122,105)"/>
<path d="M0 0 C1.40897804 0.00333092 1.40897804 0.00333092 2.84642029 0.00672913 C3.90744461 0.00680466 4.96846893 0.00688019 6.06164551 0.00695801 C7.21579453 0.01211929 8.36994354 0.01728058 9.55906677 0.02259827 C10.73404221 0.02401321 11.90901764 0.02542816 13.11959839 0.02688599 C16.88981116 0.0325046 20.65996556 0.04506026 24.43016052 0.05775452 C26.97898779 0.06276712 29.52781599 0.06733044 32.0766449 0.07142639 C38.34033685 0.08248007 44.60399452 0.0992363 50.86766052 0.12025452 C51.43016052 2.05775452 51.43016052 2.05775452 51.86766052 4.12025452 C50.86766052 5.12025452 50.86766052 5.12025452 48.73532104 5.24050903 C47.79600235 5.23828842 46.85668365 5.23606781 45.88890076 5.23377991 C44.82787643 5.23370438 43.76685211 5.23362885 42.67367554 5.23355103 C40.94245201 5.2258091 40.94245201 5.2258091 39.17625427 5.21791077 C38.00127884 5.21649582 36.82630341 5.21508087 35.61572266 5.21362305 C31.84550988 5.20800444 28.07535549 5.19544878 24.30516052 5.18275452 C21.75633325 5.17774191 19.20750506 5.17317859 16.65867615 5.16908264 C10.3949842 5.15802896 4.13132653 5.14127273 -2.13233948 5.12025452 C-2.69483948 3.18275452 -2.69483948 3.18275452 -3.13233948 1.12025452 C-2.13233948 0.12025452 -2.13233948 0.12025452 0 0 Z " fill="#D01E1C" transform="translate(64.13233947753906,70.87974548339844)"/>
<path d="M0 0 C0.33 0 0.66 0 1 0 C1 18.81 1 37.62 1 57 C-3.46715328 58.11678832 -3.46715328 58.11678832 -6.875 56.625 C-10.23900259 55.24538096 -13.37290063 54.45338742 -17 54 C-17 54.66 -17 55.32 -17 56 C-18.670625 56.1546875 -18.670625 56.1546875 -20.375 56.3125 C-21.57125 56.539375 -22.7675 56.76625 -24 57 C-24.66 57.99 -25.32 58.98 -26 60 C-26.639375 60.28875 -27.27875 60.5775 -27.9375 60.875 C-31.36949745 62.74699861 -32.60129185 65.65889078 -33.6875 69.3125 C-34.49336169 76.24291051 -34.31505711 80.86100535 -31 87 C-30.01 87.66 -29.02 88.32 -28 89 C-28.495 89.99 -28.495 89.99 -29 91 C-31.90185651 90.1034131 -33.60624405 89.55213824 -35.3984375 87.0390625 C-38.15234376 80.23140624 -38.70009467 74.19740679 -37 67 C-35.0831852 63.3787742 -33.02050527 60.76160482 -30 58 C-29.195625 57.113125 -28.39125 56.22625 -27.5625 55.3125 C-22.92842971 51.49204511 -16.7333115 51.85335013 -11 52 C-7.43479433 52.50775517 -4.24086726 53.37956637 -1 55 C-0.67 36.85 -0.34 18.7 0 0 Z " fill="#DF3D3D" transform="translate(130,41)"/>
<path d="M0 0 C2.58413772 0.51682754 5.16814378 1.03439305 7.75 1.5625 C11.85316301 2.11484887 15.86724633 2.08265507 20 2 C20 1.34 20 0.68 20 0 C21.32 0 22.64 0 24 0 C24.66 3.96 25.32 7.92 26 12 C23.7415625 11.505 23.7415625 11.505 21.4375 11 C13.42701088 9.42711294 6.90345048 10.26773688 -1 12 C-0.67 8.04 -0.34 4.08 0 0 Z " fill="#FAEBEC" transform="translate(104,136)"/>
<path d="M0 0 C1.98 0 3.96 0 6 0 C6 1.98 6 3.96 6 6 C7.98 6 9.96 6 12 6 C12 4.02 12 2.04 12 0 C13.98 0 15.96 0 18 0 C18 5.61 18 11.22 18 17 C16.35 17 14.7 17 13 17 C13 14.69 13 12.38 13 10 C10.36 10 7.72 10 5 10 C5 12.31 5 14.62 5 17 C3.35 17 1.7 17 0 17 C0 11.39 0 5.78 0 0 Z " fill="#D72424" transform="translate(62,48)"/>
<path d="M0 0 C1.60279192 0.00015914 3.20558896 0.00585476 4.80834961 0.01586914 C5.65038437 0.01728409 6.49241913 0.01869904 7.35997009 0.02015686 C10.06024671 0.02577276 12.76044163 0.03832791 15.46069336 0.05102539 C17.28686404 0.05603834 19.11303602 0.06060161 20.93920898 0.06469727 C25.42556878 0.07574735 29.9118672 0.0930226 34.39819336 0.11352539 C34.96069336 2.05102539 34.96069336 2.05102539 35.39819336 4.11352539 C34.39819336 5.11352539 34.39819336 5.11352539 30.79638672 5.22705078 C29.19359479 5.22689164 27.59079776 5.22119602 25.98803711 5.21118164 C25.14600235 5.20976669 24.30396759 5.20835175 23.43641663 5.20689392 C20.73614001 5.20127802 18.03594508 5.18872287 15.33569336 5.17602539 C13.50952268 5.17101244 11.6833507 5.16644918 9.85717773 5.16235352 C5.37081794 5.15130343 0.88451952 5.13402818 -3.60180664 5.11352539 C-4.16430664 3.17602539 -4.16430664 3.17602539 -4.60180664 1.11352539 C-3.60180664 0.11352539 -3.60180664 0.11352539 0 0 Z " fill="#CA2223" transform="translate(65.601806640625,82.886474609375)"/>
<path d="M0 0 C4.62 0 9.24 0 14 0 C14 0.99 14 1.98 14 3 C11.03 3 8.06 3 5 3 C5 4.32 5 5.64 5 7 C7.64 7 10.28 7 13 7 C13 7.99 13 8.98 13 10 C10.36 10 7.72 10 5 10 C5 10.99 5 11.98 5 13 C8.3 13 11.6 13 15 13 C15 14.32 15 15.64 15 17 C10.05 17 5.1 17 0 17 C0 11.39 0 5.78 0 0 Z " fill="#CA1111" transform="translate(100,48)"/>
<path d="M0 0 C0.99773437 0.02320313 1.99546875 0.04640625 3.0234375 0.0703125 C4.52777344 0.09738281 4.52777344 0.09738281 6.0625 0.125 C6.83335938 0.14820313 7.60421875 0.17140625 8.3984375 0.1953125 C8.7284375 0.8553125 9.0584375 1.5153125 9.3984375 2.1953125 C9.0684375 2.8553125 8.7384375 3.5153125 8.3984375 4.1953125 C5.7584375 4.1953125 3.1184375 4.1953125 0.3984375 4.1953125 C0.0684375 4.8553125 -0.2615625 5.5153125 -0.6015625 6.1953125 C0.4709375 6.2984375 1.5434375 6.4015625 2.6484375 6.5078125 C6.25664622 7.16931743 7.76238773 7.77014671 10.3984375 10.1953125 C9.6484375 14.9453125 9.6484375 14.9453125 7.3984375 17.1953125 C4.8671875 17.42578125 4.8671875 17.42578125 1.8984375 17.3828125 C0.42890625 17.37314453 0.42890625 17.37314453 -1.0703125 17.36328125 C-3.6015625 17.1953125 -3.6015625 17.1953125 -5.6015625 16.1953125 C-5.2715625 15.2053125 -4.9415625 14.2153125 -4.6015625 13.1953125 C-1.6315625 13.1953125 1.3384375 13.1953125 4.3984375 13.1953125 C1.57679112 11.1594711 1.57679112 11.1594711 -1.1640625 10.1953125 C-3.6015625 9.1953125 -3.6015625 9.1953125 -5.6015625 7.1953125 C-5.18473173 3.0270048 -4.61912383 0.34678107 0 0 Z " fill="#CE1414" transform="translate(87.6015625,47.8046875)"/>
<path d="M0 0 C1.16781006 0.00523682 2.33562012 0.01047363 3.53881836 0.01586914 C4.79887695 0.0190918 6.05893555 0.02231445 7.35717773 0.02563477 C8.6976732 0.03399136 10.03816799 0.04245632 11.37866211 0.05102539 C12.72306153 0.05603879 14.06746271 0.06060197 15.41186523 0.06469727 C18.71334151 0.07653051 22.01473014 0.09301568 25.31616211 0.11352539 C25.31616211 1.43352539 25.31616211 2.75352539 25.31616211 4.11352539 C22.60214917 5.47053186 20.46769895 5.22591149 17.43334961 5.21118164 C16.26674805 5.20795898 15.10014648 5.20473633 13.89819336 5.20141602 C12.67487305 5.19303711 11.45155273 5.1846582 10.19116211 5.17602539 C8.96010742 5.17151367 7.72905273 5.16700195 6.46069336 5.16235352 C3.41246819 5.15053869 0.36433897 5.13406567 -2.68383789 5.11352539 C-3.24633789 3.17602539 -3.24633789 3.17602539 -3.68383789 1.11352539 C-2.68383789 0.11352539 -2.68383789 0.11352539 0 0 Z " fill="#C41717" transform="translate(64.683837890625,105.886474609375)"/>
<path d="M0 0 C1.084021 0.00523682 2.16804199 0.01047363 3.28491211 0.01586914 C5.03964844 0.02070312 5.03964844 0.02070312 6.82983398 0.02563477 C8.67738281 0.03820312 8.67738281 0.03820312 10.56225586 0.05102539 C12.41560547 0.05779297 12.41560547 0.05779297 14.30639648 0.06469727 C17.37089703 0.07652931 20.43530307 0.09301366 23.49975586 0.11352539 C24.06225586 2.05102539 24.06225586 2.05102539 24.49975586 4.11352539 C23.49975586 5.11352539 23.49975586 5.11352539 20.99951172 5.22705078 C19.91549072 5.22181396 18.83146973 5.21657715 17.71459961 5.21118164 C16.54477539 5.20795898 15.37495117 5.20473633 14.16967773 5.20141602 C12.93797852 5.19303711 11.7062793 5.1846582 10.43725586 5.17602539 C8.58390625 5.16925781 8.58390625 5.16925781 6.69311523 5.16235352 C3.62861469 5.15052147 0.56420864 5.13403712 -2.50024414 5.11352539 C-3.06274414 3.17602539 -3.06274414 3.17602539 -3.50024414 1.11352539 C-2.50024414 0.11352539 -2.50024414 0.11352539 0 0 Z " fill="#CD1919" transform="translate(64.500244140625,117.886474609375)"/>
<path d="M0 0 C9.57 0 19.14 0 29 0 C29 1.32 29 2.64 29 4 C19.43 4 9.86 4 0 4 C0 2.68 0 1.36 0 0 Z " fill="#BC0C0C" transform="translate(62,95)"/>
<path d="M0 0 C0.66 0.33 1.32 0.66 2 1 C1.67 1.99 1.34 2.98 1 4 C0.38125 4.28875 -0.2375 4.5775 -0.875 4.875 C-3.75736279 6.40095677 -4.58223495 8.09695728 -6 11 C-8.1472131 18.22244408 -7.51569893 24.48944643 -4 31 C-3.01 31.66 -2.02 32.32 -1 33 C-1.33 33.66 -1.66 34.32 -2 35 C-4.90185651 34.1034131 -6.60624405 33.55213824 -8.3984375 31.0390625 C-11.15234376 24.23140624 -11.70009467 18.19740679 -10 11 C-7.4645394 6.19160605 -4.52007483 3.01338322 0 0 Z " fill="#C02627" transform="translate(103,97)"/>
<path d="M0 0 C1.65 0 3.3 0 5 0 C5 5.61 5 11.22 5 17 C3.35 17 1.7 17 0 17 C-0.33 14.03 -0.66 11.06 -1 8 C-2.98 8 -4.96 8 -7 8 C-7 7.67 -7 7.34 -7 7 C-4.69 7 -2.38 7 0 7 C0 4.69 0 2.38 0 0 Z " fill="#CD1919" transform="translate(75,48)"/>
<path d="M0 0 C0.99 0.33 1.98 0.66 3 1 C2.67 3.97 2.34 6.94 2 10 C-1.63 10.33 -5.26 10.66 -9 11 C-6.72382466 6.44764931 -5.1643382 4.77622546 -1 2 C-0.34 2.33 0.32 2.66 1 3 C0.67 2.01 0.34 1.02 0 0 Z " fill="#D70000" transform="translate(142,150)"/>
<path d="M0 0 C9.24 0 18.48 0 28 0 C28 1.32 28 2.64 28 4 C27.34 4 26.68 4 26 4 C26 3.34 26 2.68 26 2 C17.42 2 8.84 2 0 2 C-0.33 2.66 -0.66 3.32 -1 4 C-0.67 2.68 -0.34 1.36 0 0 Z " fill="#D83E3E" transform="translate(62,106)"/>
<path d="M0 0 C0.66 0 1.32 0 2 0 C2.04254356 1.99954746 2.04080783 4.00041636 2 6 C1 7 1 7 -1.43359375 7.1328125 C-2.92052734 7.12894531 -2.92052734 7.12894531 -4.4375 7.125 C-5.92056641 7.12886719 -5.92056641 7.12886719 -7.43359375 7.1328125 C-10 7 -10 7 -12 6 C-11.67 5.01 -11.34 4.02 -11 3 C-7.37 3.33 -3.74 3.66 0 4 C0 2.68 0 1.36 0 0 Z " fill="#C8100F" transform="translate(94,58)"/>
<path d="M0 0 C6.75 1.75 6.75 1.75 9 4 C8.625 6.625 8.625 6.625 8 9 C7.67 9 7.34 9 7 9 C7 7.35 7 5.7 7 4 C6.34 4 5.68 4 5 4 C5 5.32 5 6.64 5 8 C3 7 3 7 0 5 C-1.65583225 4.30686092 -3.32110979 3.63525576 -5 3 C-5 2.67 -5 2.34 -5 2 C-3.35 1.67 -1.7 1.34 0 1 C0 0.67 0 0.34 0 0 Z " fill="#CC2525" transform="translate(89,54)"/>
<path d="M0 0 C0.28875 0.61875 0.5775 1.2375 0.875 1.875 C1.93720042 4.13325765 1.93720042 4.13325765 4 6 C4.309375 6.99 4.61875 7.98 4.9375 9 C5.75927075 12.27221752 5.75927075 12.27221752 9 14 C8.67 14.66 8.34 15.32 8 16 C5.6875 15.5 5.6875 15.5 3 14 C0.39750386 9.56762376 -0.3833252 5.11100269 0 0 Z " fill="#C12122" transform="translate(93,116)"/>
<path d="M0 0 C2.97 0 5.94 0 9 0 C9 2.31 9 4.62 9 7 C6.03 7 3.06 7 0 7 C0 6.01 0 5.02 0 4 C2.64 4 5.28 4 8 4 C8 3.01 8 2.02 8 1 C5.36 1 2.72 1 0 1 C0 0.67 0 0.34 0 0 Z " fill="#FBCBCE" transform="translate(105,54)"/>
<path d="M0 0 C0.81791016 0.2165625 0.81791016 0.2165625 1.65234375 0.4375 C7.24959924 1.81528597 12.23945745 2.18287437 18 2 C18 2.66 18 3.32 18 4 C7.31690141 6.08450704 7.31690141 6.08450704 2.0625 3.625 C1.381875 3.08875 0.70125 2.5525 0 2 C0 1.34 0 0.68 0 0 Z " fill="#BB2E2D" transform="translate(106,134)"/>
<path d="M0 0 C2.42115191 2.42115191 2.60948898 3.64160525 3 7 C2.5625 9.8125 2.5625 9.8125 2 12 C1.01 12 0.02 12 -1 12 C-0.67 8.04 -0.34 4.08 0 0 Z " fill="#BA3132" transform="translate(93,108)"/>
<path d="M0 0 C2.64 0.33 5.28 0.66 8 1 C7.01 1.495 7.01 1.495 6 2 C6 2.66 6 3.32 6 4 C3.69 3.67 1.38 3.34 -1 3 C-0.67 2.01 -0.34 1.02 0 0 Z " fill="#FCD4D3" transform="translate(88,51)"/>
<path d="M0 0 C2.475 0.99 2.475 0.99 5 2 C4.67 2.66 4.34 3.32 4 4 C1.03 3.67 -1.94 3.34 -5 3 C-5 2.67 -5 2.34 -5 2 C-3.35 2 -1.7 2 0 2 C0 1.34 0 0.68 0 0 Z " fill="#EEC4C6" transform="translate(88,58)"/>
<path d="M0 0 C2.64752004 2.57784846 4.94432065 4.91648098 7 8 C6.01 8.33 5.02 8.66 4 9 C0 2.25 0 2.25 0 0 Z " fill="#D70000" transform="translate(8,127)"/>
<path d="M0 0 C0.66 0 1.32 0 2 0 C0.66666667 3.33333333 -0.66666667 6.66666667 -2 10 C-2.66 10 -3.32 10 -4 10 C-2.8905928 6.51329166 -1.73662334 3.22515763 0 0 Z " fill="#FFFFFF" transform="translate(167,118)"/>
<path d="M0 0 C0.33 0 0.66 0 1 0 C1 1.65 1 3.3 1 5 C0.34 5 -0.32 5 -1 5 C-0.67 3.35 -0.34 1.7 0 0 Z " fill="#FFFFFF" transform="translate(171,107)"/>
<path d="M0 0 C1.32 0 2.64 0 4 0 C4 0.66 4 1.32 4 2 C2.68 1.34 1.36 0.68 0 0 Z " fill="#D70000" transform="translate(45,163)"/>
<path d="M0 0 C0.99 0.33 1.98 0.66 3 1 C2.01 1.33 1.02 1.66 0 2 C0 1.34 0 0.68 0 0 Z " fill="#D70000" transform="translate(150,143)"/>
<path d="M0 0 C0.99 0.33 1.98 0.66 3 1 C2.01 1 1.02 1 0 1 C0 0.67 0 0.34 0 0 Z " fill="#D70000" transform="translate(19,143)"/>
<path d="M0 0 C3 1 3 1 3 1 Z " fill="#D70000" transform="translate(23,146)"/>
<path d="M0 0 C0.66 0.66 1.32 1.32 2 2 C1.34 2 0.68 2 0 2 C0 1.34 0 0.68 0 0 Z " fill="#D70000" transform="translate(7,124)"/>
<path d="M0 0 C0.66 0 1.32 0 2 0 C1.67 0.66 1.34 1.32 1 2 C0.67 1.34 0.34 0.68 0 0 Z " fill="#D70000" transform="translate(7,44)"/>
<path d="M0 0 C0.66 0 1.32 0 2 0 C1.67 0.66 1.34 1.32 1 2 C0.67 1.34 0.34 0.68 0 0 Z " fill="#D70000" transform="translate(147,24)"/>
<path d="M0 0 C2 1 2 1 2 1 Z " fill="#D70000" transform="translate(125,161)"/>
<path d="M0 0 C2 1 2 1 2 1 Z " fill="#D70000" transform="translate(32,153)"/>
<path d="" fill="#D70000" transform="translate(0,0)"/>
<path d="" fill="#D70000" transform="translate(0,0)"/>
<path d="M0 0 C2 1 2 1 2 1 Z " fill="#D70000" transform="translate(23,24)"/>
<path d="" fill="#D70000" transform="translate(0,0)"/>
<path d="M0 0 C2 1 2 1 2 1 Z " fill="#D70000" transform="translate(134,14)"/>
<path d="" fill="#D70000" transform="translate(0,0)"/>
<path d="" fill="#D70000" transform="translate(0,0)"/>
<path d="" fill="#D70000" transform="translate(0,0)"/>
<path d="" fill="#D70000" transform="translate(0,0)"/>
<path d="" fill="#D70000" transform="translate(0,0)"/>
<path d="" fill="#D70000" transform="translate(0,0)"/>
<path d="" fill="#D70000" transform="translate(0,0)"/>
<path d="" fill="#D70000" transform="translate(0,0)"/>
<path d="" fill="#D70000" transform="translate(0,0)"/>
<path d="" fill="#D70000" transform="translate(0,0)"/>
<path d="" fill="#D70000" transform="translate(0,0)"/>
<path d="" fill="#D70000" transform="translate(0,0)"/>
<path d="" fill="#D70000" transform="translate(0,0)"/>
<path d="" fill="#D70000" transform="translate(0,0)"/>
<path d="" fill="#D70000" transform="translate(0,0)"/>
<path d="" fill="#D70000" transform="translate(0,0)"/>
</svg>
