<?xml version="1.0" encoding="UTF-8"?>
<svg version="1.1" xmlns="http://www.w3.org/2000/svg" width="172" height="172">
<path d="M0 0 C1.00509109 -0.00143509 1.00509109 -0.00143509 2.03048706 -0.00289917 C3.45457045 -0.00358135 4.87865692 -0.00172444 6.30273438 0.00244141 C8.46231283 0.00773921 10.62167849 0.00252399 12.78125 -0.00390625 C14.16666712 -0.00324449 15.55208411 -0.00196132 16.9375 0 C18.19320801 0.00112793 19.44891602 0.00225586 20.74267578 0.00341797 C26.65742783 0.21457374 31.79551554 1.19483965 37.3671875 3.1328125 C39.02806795 3.49387347 40.69337731 3.83743423 42.3671875 4.1328125 C42.3671875 4.7928125 42.3671875 5.4528125 42.3671875 6.1328125 C44.56018655 6.70136781 46.68463916 7.17926884 48.9296875 7.5078125 C51.65665102 8.20703391 52.51146337 9.10035274 54.3671875 11.1328125 C55.0271875 11.1328125 55.6871875 11.1328125 56.3671875 11.1328125 C57.70052083 12.46614583 59.03385417 13.79947917 60.3671875 15.1328125 C61.56599531 16.02081829 62.77555184 16.89439365 63.9921875 17.7578125 C68.56596341 21.09357387 72.36873381 25.06632395 76.265625 29.15625 C78.12916296 31.36118292 78.12916296 31.36118292 80.3671875 31.1328125 C80.4496875 31.6896875 80.5321875 32.2465625 80.6171875 32.8203125 C81.24755376 35.26322121 81.24755376 35.26322121 83.16015625 37.24609375 C96.43065806 54.60344036 98.80975398 78.58617787 96.04199219 99.60205078 C94.49740872 107.91311246 91.18798877 115.63979668 87.3671875 123.1328125 C86.84125 124.22851562 86.3153125 125.32421875 85.7734375 126.453125 C82.17558703 133.63247207 78.66283091 138.26131823 72.3671875 143.1328125 C70.64968184 144.6852246 68.94168855 146.24821033 67.2421875 147.8203125 C58.02183767 156.1328125 58.02183767 156.1328125 54.3671875 156.1328125 C54.3671875 156.7928125 54.3671875 157.4528125 54.3671875 158.1328125 C51.16410522 159.36814759 47.96017516 160.60107722 44.75390625 161.828125 C42.8554464 162.55948093 40.95960336 163.29806808 39.07421875 164.0625 C30.14713304 167.63333428 21.35705513 168.44058751 11.8046875 168.3203125 C10.82822266 168.31966797 9.85175781 168.31902344 8.84570312 168.31835938 C2.04786252 168.27743592 -4.64631314 167.96719609 -11.3203125 166.5703125 C-13.74226527 166.02990703 -13.74226527 166.02990703 -16.6953125 166.1953125 C-19.68913099 166.13161423 -21.16725537 165.77651726 -23.6328125 164.1328125 C-23.9628125 163.4728125 -24.2928125 162.8128125 -24.6328125 162.1328125 C-25.2928125 161.9678125 -25.9528125 161.8028125 -26.6328125 161.6328125 C-27.2928125 161.4678125 -27.9528125 161.3028125 -28.6328125 161.1328125 C-28.9628125 160.4728125 -29.2928125 159.8128125 -29.6328125 159.1328125 C-30.2928125 159.4628125 -30.9528125 159.7928125 -31.6328125 160.1328125 C-33.6328125 159.1328125 -33.6328125 159.1328125 -34.6328125 156.1328125 C-36.64789608 155.39957454 -36.64789608 155.39957454 -38.6328125 155.1328125 C-38.6328125 154.4728125 -38.6328125 153.8128125 -38.6328125 153.1328125 C-39.22610352 152.85953125 -39.81939453 152.58625 -40.43066406 152.3046875 C-43.8982804 150.45939277 -46.52418864 147.79667298 -49.3828125 145.1328125 C-50.28580078 144.31296875 -50.28580078 144.31296875 -51.20703125 143.4765625 C-52.72435132 142.07278339 -54.1837779 140.60697487 -55.6328125 139.1328125 C-55.6328125 138.4728125 -55.6328125 137.8128125 -55.6328125 137.1328125 C-56.6228125 136.8028125 -57.6128125 136.4728125 -58.6328125 136.1328125 C-61.28104447 132.32362576 -63.41567403 128.20490789 -65.6328125 124.1328125 C-66.33857422 122.864375 -66.33857422 122.864375 -67.05859375 121.5703125 C-77.90926697 101.14551585 -77.96545814 78.17303925 -71.53125 56.40625 C-69.1380633 49.19581008 -66.30749839 43.11598834 -61.6328125 37.1328125 C-60.92769531 36.22660156 -60.22257812 35.32039063 -59.49609375 34.38671875 C-50.39319106 22.99649925 -50.39319106 22.99649925 -45.6328125 19.1328125 C-44.9728125 19.1328125 -44.3128125 19.1328125 -43.6328125 19.1328125 C-43.1378125 17.6478125 -43.1378125 17.6478125 -42.6328125 16.1328125 C-40.9828125 15.8028125 -39.3328125 15.4728125 -37.6328125 15.1328125 C-37.6328125 14.4728125 -37.6328125 13.8128125 -37.6328125 13.1328125 C-36.34367763 12.46126317 -35.05141046 11.79572391 -33.7578125 11.1328125 C-33.03851563 10.7615625 -32.31921875 10.3903125 -31.578125 10.0078125 C-29.6328125 9.1328125 -29.6328125 9.1328125 -27.6328125 9.1328125 C-27.3028125 8.4728125 -26.9728125 7.8128125 -26.6328125 7.1328125 C-24.78515625 6.28125 -24.78515625 6.28125 -22.5703125 5.5078125 C-21.83683594 5.24742187 -21.10335937 4.98703125 -20.34765625 4.71875 C-19.78175781 4.52539062 -19.21585938 4.33203125 -18.6328125 4.1328125 C-19.1278125 3.1428125 -19.1278125 3.1428125 -19.6328125 2.1328125 C-18.6428125 2.1328125 -17.6528125 2.1328125 -16.6328125 2.1328125 C-16.6328125 2.7928125 -16.6328125 3.4528125 -16.6328125 4.1328125 C-15.9728125 4.1328125 -15.3128125 4.1328125 -14.6328125 4.1328125 C-14.3028125 3.4728125 -13.9728125 2.8128125 -13.6328125 2.1328125 C-11.63995313 1.75915137 -9.63917721 1.42540735 -7.6328125 1.1328125 C-5.74884928 -0.75115072 -2.50615871 0.00226334 0 0 Z M-19.6328125 163.1328125 C-19.3028125 163.7928125 -18.9728125 164.4528125 -18.6328125 165.1328125 C-17.9728125 164.8028125 -17.3128125 164.4728125 -16.6328125 164.1328125 C-17.6228125 163.8028125 -18.6128125 163.4728125 -19.6328125 163.1328125 Z " fill="#D50202" transform="translate(75.6328125,1.8671875)"/>
<path d="M0 0 C0.83724609 -0.01224609 1.67449219 -0.02449219 2.53710938 -0.03710938 C3.73883789 -0.04000977 3.73883789 -0.04000977 4.96484375 -0.04296875 C5.70210693 -0.04707764 6.43937012 -0.05118652 7.19897461 -0.05541992 C9.0625 0.1875 9.0625 0.1875 11.0625 2.1875 C11.0625 3.5075 11.0625 4.8275 11.0625 6.1875 C11.619375 6.32285156 12.17625 6.45820312 12.75 6.59765625 C22.05322461 9.22204562 27.66773736 14.78421776 32.75390625 22.84765625 C34.43854839 25.85989698 35.8273332 28.94043803 37.10546875 32.14453125 C37.97234789 34.26398576 37.97234789 34.26398576 39.6484375 35.90234375 C41.837057 39.43920123 41.5507555 42.85675797 41.5 46.9375 C41.49315186 47.7742627 41.48630371 48.61102539 41.47924805 49.47314453 C41.25591077 58.31796979 40.59710473 69.17165801 34.56640625 76.0234375 C29.81790118 80.12744969 26.3583848 81.57025639 20.0625 82.1875 C20.0625 83.5075 20.0625 84.8275 20.0625 86.1875 C21.04089844 86.35765625 22.01929687 86.5278125 23.02734375 86.703125 C33.84162958 88.66634656 44.69657308 90.73482372 51.5390625 100.23828125 C55.56984282 107.11762978 56.71167816 114.35637257 55.0625 122.1875 C52.96895016 125.39344349 50.7421875 126.3444592 47.0625 127.1875 C42.36097561 127.54489639 37.76549728 127.48474 33.0625 127.1875 C33.0625 128.5075 33.0625 129.8275 33.0625 131.1875 C34.7125 131.1875 36.3625 131.1875 38.0625 131.1875 C35.30026722 133.94973278 32.85543383 133.76606291 29.0625 134.1875 C29.0625 133.1975 29.0625 132.2075 29.0625 131.1875 C21.4725 131.1875 13.8825 131.1875 6.0625 131.1875 C6.0625 133.8275 6.0625 136.4675 6.0625 139.1875 C4.7425 139.1875 3.4225 139.1875 2.0625 139.1875 C2.0625 124.9975 2.0625 110.8075 2.0625 96.1875 C0.7425 96.1875 -0.5775 96.1875 -1.9375 96.1875 C-1.9375 110.0475 -1.9375 123.9075 -1.9375 138.1875 C-3.2575 138.1875 -4.5775 138.1875 -5.9375 138.1875 C-5.9375 135.8775 -5.9375 133.5675 -5.9375 131.1875 C-14.5175 131.1875 -23.0975 131.1875 -31.9375 131.1875 C-32.4325 129.2075 -32.4325 129.2075 -32.9375 127.1875 C-33.80375 127.27 -34.67 127.3525 -35.5625 127.4375 C-39.71244188 127.1300969 -41.70439446 125.72779721 -44.9375 123.1875 C-44.9375 122.8575 -44.9375 122.5275 -44.9375 122.1875 C-40.9775 122.1875 -37.0175 122.1875 -32.9375 122.1875 C-32.9375 119.8775 -32.9375 117.5675 -32.9375 115.1875 C-30.9575 114.6925 -30.9575 114.6925 -28.9375 114.1875 C-28.6075 115.5075 -28.2775 116.8275 -27.9375 118.1875 C-21.0075 118.1875 -14.0775 118.1875 -6.9375 118.1875 C-6.9375 110.5975 -6.9375 103.0075 -6.9375 95.1875 C-9.2475 94.5275 -11.5575 93.8675 -13.9375 93.1875 C-14.9275 92.5275 -15.9175 91.8675 -16.9375 91.1875 C-21.91213257 91.59248224 -26.67388403 92.7575845 -31.5 94 C-32.75941406 94.31582031 -34.01882812 94.63164063 -35.31640625 94.95703125 C-41.08123481 96.91595357 -45.29742509 99.53929748 -48.19140625 105.0390625 C-49.66367162 109.27857011 -49.77639811 113.73303279 -49.9375 118.1875 C-53.75968016 115.82718954 -53.75968016 115.82718954 -54.5390625 113.0234375 C-54.60694963 105.89528919 -52.75857003 101.44226461 -47.9375 96.1875 C-41.14063225 89.58188611 -29.36730016 86.1875 -19.9375 86.1875 C-19.9375 84.8675 -19.9375 83.5475 -19.9375 82.1875 C-20.51757812 82.08953125 -21.09765625 81.9915625 -21.6953125 81.890625 C-27.46135783 80.78689355 -32.45770384 79.62884977 -36.0859375 74.59375 C-41.09534407 65.10224282 -42.85917073 50.81963016 -41.9375 40.1875 C-40.171875 37.1796875 -40.171875 37.1796875 -37.9375 34.1875 C-37.28788307 32.93428622 -36.66917381 31.66468934 -36.078125 30.3828125 C-31.67827422 20.89155739 -27.02356431 11.69968667 -16.9375 7.1875 C-13.625 6.5 -13.625 6.5 -10.9375 6.1875 C-10.793125 5.383125 -10.64875 4.57875 -10.5 3.75 C-9.30936219 -1.67401669 -4.65705932 0.00356863 0 0 Z " fill="#FAE8E7" transform="translate(81.9375,26.8125)"/>
<path d="M0 0 C10.56 0 21.12 0 32 0 C34.475 4.95 34.475 4.95 37 10 C37.495 10.495 37.495 10.495 38 11 C39.17173476 20.56669523 37.59760571 28.10654755 32 36 C27.33669062 40.68148992 22.28131302 43.49518261 15.75 44.5 C7.87155854 43.44954114 2.49129318 37.89082914 -2.58984375 32.125 C-6.80208105 25.77747344 -6.91426798 18.34999749 -6 11 C-4.95175666 8.57169529 -3.79532521 6.67880042 -2.19140625 4.5859375 C-0.78798481 2.89224601 -0.78798481 2.89224601 0 0 Z " fill="#D50505" transform="translate(66,64)"/>
<path d="M0 0 C0.99902344 0.22816406 1.99804688 0.45632812 3.02734375 0.69140625 C4.04957031 0.97886719 5.07179688 1.26632813 6.125 1.5625 C7.19878906 1.86027344 8.27257812 2.15804687 9.37890625 2.46484375 C16.73125761 4.71114496 22.53372372 7.08056454 26.41015625 14.1484375 C28.05247312 19.69462233 27.32645124 25.87150242 27.125 31.5625 C21.515 31.5625 15.905 31.5625 10.125 31.5625 C9.795 29.2525 9.465 26.9425 9.125 24.5625 C8.135 24.5625 7.145 24.5625 6.125 24.5625 C5.795 25.5525 5.465 26.5425 5.125 27.5625 C-1.805 27.5625 -8.735 27.5625 -15.875 27.5625 C-15.875 19.9725 -15.875 12.3825 -15.875 4.5625 C-4.60227273 -1.07386364 -4.60227273 -1.07386364 0 0 Z " fill="#D20304" transform="translate(104.875,117.4375)"/>
<path d="M0 0 C4.62 0 9.24 0 14 0 C14 6.6 14 13.2 14 20 C9.38 20 4.76 20 0 20 C0 13.4 0 6.8 0 0 Z " fill="#D02627" transform="translate(75,31)"/>
<path d="M0 0 C1.32 0 2.64 0 4 0 C4.042721 1.66611905 4.04063832 3.33382885 4 5 C3.67 5.33 3.34 5.66 3 6 C2.91070944 9.08690225 3.24766077 12.00620874 4 15 C5.61974559 16.71230248 7.2958946 18.37163262 9 20 C15.48358598 30.88207506 15.48358598 30.88207506 15 37 C4.73684211 34.10526316 4.73684211 34.10526316 2 30 C-1.43231563 21.11635955 -2.93001543 11.50507294 -2 2 C-1.34 1.34 -0.68 0.68 0 0 Z " fill="#CD0D0D" transform="translate(47,68)"/>
<path d="M0 0 C4.875 1.875 4.875 1.875 6 3 C6.7754336 10.0297505 5.8896941 16.6810911 4.25 23.5 C4.09313721 24.18199463 3.93627441 24.86398926 3.7746582 25.56665039 C2.27371303 31.35950689 -0.14209895 33.7613993 -5 37 C-6.9896995 37.39013716 -8.99019869 37.73202649 -11 38 C-11.4554285 33.31434141 -9.99308888 30.50427669 -7.75 26.4375 C-6.84507813 24.76494141 -6.84507813 24.76494141 -5.921875 23.05859375 C-4 20 -4 20 -1.81640625 17.890625 C0.35901112 15.62631961 0.59296259 14.40134031 0.8125 11.3125 C0.88082031 10.52488281 0.94914062 9.73726562 1.01953125 8.92578125 C1.2245768 6.99127703 1.2245768 6.99127703 0 6 C-0.04080783 4.00041636 -0.04254356 1.99954746 0 0 Z " fill="#CD0D0D" transform="translate(113,67)"/>
<path d="M0 0 C1.0310512 0.96795321 2.03793492 1.96345247 3 3 C2.04222656 2.85852539 1.08445312 2.71705078 0.09765625 2.57128906 C-9.25408657 1.25692424 -18.41427425 0.68334764 -27.85449219 0.73925781 C-29.99963613 0.74999818 -32.14394319 0.73926708 -34.2890625 0.7265625 C-43.99310288 0.71827128 -53.4038298 1.58253071 -63 3 C-60.85123393 0.76932944 -59.23380904 -0.54654514 -56.3125 -1.625 C-55.68988281 -1.86476562 -55.06726562 -2.10453125 -54.42578125 -2.3515625 C-38.19514079 -6.69018781 -15.6135345 -6.49297193 0 0 Z " fill="#D50A0A" transform="translate(112,60)"/>
<path d="M0 0 C7.68920332 1.28153389 11.87277351 4.7977894 16.5 11.015625 C17.625 12.875 17.625 12.875 19 16 C18.67 16.66 18.34 17.32 18 18 C17.31550781 17.69320312 16.63101563 17.38640625 15.92578125 17.0703125 C12.67122494 15.87972715 9.61620914 15.35986796 6.1875 14.875 C4.145625 14.58625 2.10375 14.2975 0 14 C0 9.38 0 4.76 0 0 Z " fill="#CF0808" transform="translate(93,38)"/>
<path d="M0 0 C0 4.62 0 9.24 0 14 C-3.19010417 14.45572917 -6.38020833 14.91145833 -9.5703125 15.3671875 C-12.86078915 15.97431417 -15.85779103 16.86345633 -19 18 C-17.54263646 10.89535273 -12.29249335 5.31959485 -6.48828125 1.23046875 C-4 0 -4 0 0 0 Z " fill="#CD090A" transform="translate(71,38)"/>
<path d="M0 0 C0.33 0 0.66 0 1 0 C1 2.64 1 5.28 1 8 C-5.37372591 11.6589908 -11.85643553 14.09344483 -19.296875 12.51171875 C-19.85890625 12.34285156 -20.4209375 12.17398438 -21 12 C-21 9.69 -21 7.38 -21 5 C-19.83984375 5.06960937 -19.83984375 5.06960937 -18.65625 5.140625 C-11.50696389 5.38837254 -7.09233485 4.79334057 -1 1 C-0.67 0.67 -0.34 0.34 0 0 Z " fill="#CE1314" transform="translate(96,106)"/>
<path d="M0 0 C7.26 0 14.52 0 22 0 C22 1.32 22 2.64 22 4 C14.74 4 7.48 4 0 4 C0 2.68 0 1.36 0 0 Z " fill="#D90F0E" transform="translate(88,150)"/>
<path d="M0 0 C7.26 0 14.52 0 22 0 C22 1.32 22 2.64 22 4 C14.74 4 7.48 4 0 4 C0 2.68 0 1.36 0 0 Z " fill="#DA0F0F" transform="translate(54,150)"/>
<path d="M0 0 C1.98 0.99 1.98 0.99 4 2 C4 4.31 4 6.62 4 9 C2.68 8.67 1.36 8.34 0 8 C0 5.36 0 2.72 0 0 Z " fill="#B41517" transform="translate(67,106)"/>
<path d="M0 0 C0.99 0.99 1.98 1.98 3 3 C-2.28 2.34 -7.56 1.68 -13 1 C-13 0.67 -13 0.34 -13 0 C-8.3768446 -0.83216797 -4.56657934 -1.24543073 0 0 Z " fill="#BB4041" transform="translate(112,60)"/>
<path d="M0 0 C1.00289062 0.10183594 2.00578125 0.20367187 3.0390625 0.30859375 C3.80992188 0.39238281 4.58078125 0.47617187 5.375 0.5625 C5.375 0.8925 5.375 1.2225 5.375 1.5625 C0.095 2.2225 -5.185 2.8825 -10.625 3.5625 C-6.59255659 -0.46994341 -5.47972775 -0.57345988 0 0 Z " fill="#BB3F40" transform="translate(59.625,59.4375)"/>
<path d="M0 0 C2.76390737 2.40339772 3.04065919 3.16263678 4 7 C-1.94 5.515 -1.94 5.515 -8 4 C-8 3.67 -8 3.34 -8 3 C-5.36 3 -2.72 3 0 3 C0 2.01 0 1.02 0 0 Z " fill="#C02423" transform="translate(108,49)"/>
<path d="M0 0 C0.33 0.66 0.66 1.32 1 2 C-0.3125 4.625 -0.3125 4.625 -2 7 C-2.66 7 -3.32 7 -4 7 C-4 5.02 -4 3.04 -4 1 C-2.68 0.67 -1.36 0.34 0 0 Z " fill="#CC0D0E" transform="translate(60,65)"/>
<path d="M0 0 C1.65 0 3.3 0 5 0 C5 1.98 5 3.96 5 6 C4.01 5.67 3.02 5.34 2 5 C0.8125 2.4375 0.8125 2.4375 0 0 Z " fill="#CC090A" transform="translate(103,66)"/>
<path d="M0 0 C3.0916909 2.52956528 3.90931332 5.22454612 5 9 C1.9083091 6.47043472 1.09068668 3.77545388 0 0 Z " fill="#D70000" transform="translate(8,127)"/>
<path d="M0 0 C0.33 0 0.66 0 1 0 C1 1.65 1 3.3 1 5 C0.34 5 -0.32 5 -1 5 C-0.67 3.35 -0.34 1.7 0 0 Z " fill="#FFFFFF" transform="translate(167,118)"/>
<path d="M0 0 C0.33 0.66 0.66 1.32 1 2 C-0.32 2.33 -1.64 2.66 -3 3 C-2.01 2.01 -1.02 1.02 0 0 Z " fill="#D50002" transform="translate(142,151)"/>
<path d="M0 0 C0.99 0 1.98 0 3 0 C2.67 0.99 2.34 1.98 2 3 C1.34 2.67 0.68 2.34 0 2 C0 1.34 0 0.68 0 0 Z " fill="#D70000" transform="translate(8,39)"/>
<path d="M0 0 C0.66 0 1.32 0 2 0 C1.67 0.99 1.34 1.98 1 3 C0.67 2.01 0.34 1.02 0 0 Z " fill="#FFFEFF" transform="translate(28,150)"/>
<path d="M0 0 C1 4 1 4 1 4 Z " fill="#D70000" transform="translate(0,63)"/>
<path d="M0 0 C0.99 0.33 1.98 0.66 3 1 C2.01 1 1.02 1 0 1 C0 0.67 0 0.34 0 0 Z " fill="#D70000" transform="translate(135,15)"/>
<path d="M0 0 C0.99 0.495 0.99 0.495 2 1 C1.01 1.495 1.01 1.495 0 2 C0 1.34 0 0.68 0 0 Z " fill="#E06C6D" transform="translate(136,155)"/>
<path d="M0 0 C0.66 0 1.32 0 2 0 C1.67 0.66 1.34 1.32 1 2 C0.67 1.34 0.34 0.68 0 0 Z " fill="#D70000" transform="translate(19,142)"/>
<path d="" fill="#D70000" transform="translate(0,0)"/>
<path d="" fill="#D70000" transform="translate(0,0)"/>
<path d="" fill="#D70000" transform="translate(0,0)"/>
<path d="M0 0 C0.66 0.66 1.32 1.32 2 2 C1.34 2 0.68 2 0 2 C0 1.34 0 0.68 0 0 Z " fill="#D70000" transform="translate(150,27)"/>
<path d="M0 0 C0.33 0.66 0.66 1.32 1 2 C0.34 1.67 -0.32 1.34 -1 1 C-0.67 0.67 -0.34 0.34 0 0 Z " fill="#D70000" transform="translate(24,23)"/>
<path d="M0 0 C0.66 0.66 1.32 1.32 2 2 C1.34 2 0.68 2 0 2 C0 1.34 0 0.68 0 0 Z " fill="#D70000" transform="translate(143,20)"/>
<path d="M0 0 C0.33 0.66 0.66 1.32 1 2 C0.34 1.67 -0.32 1.34 -1 1 C-0.67 0.67 -0.34 0.34 0 0 Z " fill="#D70000" transform="translate(28,20)"/>
<path d="M0 0 C2 1 2 1 2 1 Z " fill="#DFC4C4" transform="translate(39,158)"/>
<path d="M0 0 C2 1 2 1 2 1 Z " fill="#D70000" transform="translate(145,148)"/>
<path d="" fill="#D70000" transform="translate(0,0)"/>
<path d="" fill="#D70000" transform="translate(0,0)"/>
<path d="M0 0 C2 1 2 1 2 1 Z " fill="#D70000" transform="translate(149,144)"/>
<path d="" fill="#D70000" transform="translate(0,0)"/>
<path d="" fill="#D70000" transform="translate(0,0)"/>
<path d="" fill="#FFFFFF" transform="translate(0,0)"/>
<path d="" fill="#D70000" transform="translate(0,0)"/>
<path d="" fill="#D70000" transform="translate(0,0)"/>
<path d="" fill="#D70000" transform="translate(0,0)"/>
<path d="" fill="#D70000" transform="translate(0,0)"/>
<path d="" fill="#A21615" transform="translate(0,0)"/>
<path d="" fill="#D70000" transform="translate(0,0)"/>
<path d="" fill="#D70000" transform="translate(0,0)"/>
<path d="" fill="#D70000" transform="translate(0,0)"/>
<path d="" fill="#D70000" transform="translate(0,0)"/>
<path d="" fill="#D70000" transform="translate(0,0)"/>
<path d="" fill="#D70000" transform="translate(0,0)"/>
<path d="" fill="#D70000" transform="translate(0,0)"/>
<path d="" fill="#D70000" transform="translate(0,0)"/>
<path d="" fill="#D70000" transform="translate(0,0)"/>
<path d="" fill="#D70000" transform="translate(0,0)"/>
</svg>
