<?xml version="1.0" encoding="UTF-8"?>
<svg version="1.1" xmlns="http://www.w3.org/2000/svg" width="172" height="172">
<path d="M0 0 C0.64582031 0.03673828 1.29164062 0.07347656 1.95703125 0.11132812 C6.3080541 0.36560868 10.65416706 0.66753191 15 1 C15 1.66 15 2.32 15 3 C16.258125 3.2475 17.51625 3.495 18.8125 3.75 C24.40763766 4.98551936 29.64811547 6.98478422 35 9 C36.99659018 9.67681023 38.99464622 10.34961499 41 11 C41 11.66 41 12.32 41 13 C43.64 13.99 46.28 14.98 49 16 C49 17.32 49 18.64 49 20 C49.99 19.67 50.98 19.34 52 19 C52.61875 20.2065625 52.61875 20.2065625 53.25 21.4375 C54.69686084 24.17024507 54.69686084 24.17024507 57.0625 24.5 C57.701875 24.665 58.34125 24.83 59 25 C59.69040574 26.65697379 60.3530635 28.3255761 61 30 C63.43750025 32.68767578 63.43750025 32.68767578 66 35 C68.23404926 37.23404926 68.92100286 38.9496423 70.0625 41.875 C70.40410156 42.73867188 70.74570313 43.60234375 71.09765625 44.4921875 C72 47 72 47 72.49609375 49.2578125 C72.74552734 50.12019531 72.74552734 50.12019531 73 51 C73.66 51.33 74.32 51.66 75 52 C75.81640625 53.99609375 75.81640625 53.99609375 76.5625 56.4375 C77.59917007 59.79152852 77.59917007 59.79152852 79 63 C79.80701197 68.28399853 80.11946225 73.35605554 80.09765625 78.7109375 C80.09553383 79.75225327 80.09553383 79.75225327 80.09336853 80.81460571 C80.08783756 83.00145042 80.07530675 85.18818707 80.0625 87.375 C80.05747531 88.86327975 80.05291412 90.35156113 80.04882812 91.83984375 C80.03765836 95.55992687 80.01943443 99.27995039 80 103 C80 103.66 80 104.32 80 105 C80 107 80 109 80 111 C79.01 111.33 78.02 111.66 77 112 C75.28432339 115.50294871 75.28432339 115.50294871 74 119 C74.66 119.66 75.32 120.32 76 121 C76.0625 124.4375 76.0625 124.4375 75 128 C72.71075964 129.57727566 70.70103897 130.16513341 68 131 C68 134.3 68 137.6 68 141 C66.88625 141.185625 65.7725 141.37125 64.625 141.5625 C63.42875 142.036875 62.2325 142.51125 61 143 C59.45913678 146.51400668 59.45913678 146.51400668 59 150 C57.02 150.33 55.04 150.66 53 151 C52.34 153.31 51.68 155.62 51 158 C46.49048355 159.09321611 41.27999354 160.13999677 37 158 C36.34 158.33 35.68 158.66 35 159 C35.33 160.32 35.66 161.64 36 163 C34.35 163 32.7 163 31 163 C31 162.34 31 161.68 31 161 C29.90945312 161.50660156 29.90945312 161.50660156 28.796875 162.0234375 C22.3399922 164.88764448 16.40604643 166.72099128 9.3984375 167.640625 C6.99296563 167.87445989 6.99296563 167.87445989 5 169 C1.33897374 169.24398641 -2.33176436 169.18521592 -6 169.1875 C-7.00417969 169.19974609 -8.00835937 169.21199219 -9.04296875 169.22460938 C-15.61860499 169.23736934 -21.60878469 168.49880645 -28 167 C-31.19066583 166.28806118 -33.6814619 166 -37 166 C-37 165.34 -37 164.68 -37 164 C-37.78375 163.87625 -38.5675 163.7525 -39.375 163.625 C-42 163 -42 163 -44 161 C-44.66 160.835 -45.32 160.67 -46 160.5 C-48 160 -48 160 -50 158 C-52.66954041 155.63500646 -52.66954041 155.63500646 -56 155 C-57.02530403 154.02596117 -58.01769502 153.0173873 -59 152 C-62.50887515 148.40655001 -62.50887515 148.40655001 -67 147 C-67.33 145.35 -67.66 143.7 -68 142 C-68.66 142 -69.32 142 -70 142 C-71 141 -72 140 -73 139 C-73.66 139 -74.32 139 -75 139 C-75.99 136.36 -76.98 133.72 -78 131 C-78.66 131 -79.32 131 -80 131 C-80.12375 130.030625 -80.2475 129.06125 -80.375 128.0625 C-80.58125 127.051875 -80.7875 126.04125 -81 125 C-81.66 124.67 -82.32 124.34 -83 124 C-83.73075648 121.6859378 -84.40138258 119.35171131 -85 117 C-88.465 117.495 -88.465 117.495 -92 118 C-92 112 -92 106 -92 100 C-92.01047363 98.98381592 -92.02094727 97.96763184 -92.03173828 96.9206543 C-92.06786865 93.29552742 -92.09088488 89.67042012 -92.10986328 86.04516602 C-92.11992012 84.47873238 -92.13356734 82.91231752 -92.15087891 81.34594727 C-92.17518415 79.08865754 -92.18649436 76.83161561 -92.1953125 74.57421875 C-92.21079636 73.52713997 -92.21079636 73.52713997 -92.22659302 72.45890808 C-92.22744766 68.74102872 -91.92237142 66.18957277 -90 63 C-89.7009375 61.91074219 -89.401875 60.82148437 -89.09375 59.69921875 C-87.94821639 55.82486044 -86.35854933 52.37795969 -84.5 48.8125 C-84.19191406 48.20986328 -83.88382813 47.60722656 -83.56640625 46.98632812 C-82.71510151 45.32208217 -81.85777207 43.66092186 -81 42 C-80.63261719 41.24589844 -80.26523438 40.49179687 -79.88671875 39.71484375 C-78.17988396 36.4139606 -75.65112539 33.72673996 -73.18359375 30.97265625 C-72.54550781 30.25980469 -71.90742187 29.54695313 -71.25 28.8125 C-70.63640625 28.13832031 -70.0228125 27.46414062 -69.390625 26.76953125 C-67.79403393 25.11300946 -67.79403393 25.11300946 -68 23 C-67.27167969 22.74476562 -66.54335937 22.48953125 -65.79296875 22.2265625 C-62.85404162 20.93590079 -60.78143117 19.41218259 -58.3125 17.375 C-54.21428571 14 -54.21428571 14 -52 14 C-52 13.01 -52 12.02 -52 11 C-50.90300781 10.59007812 -49.80601563 10.18015625 -48.67578125 9.7578125 C-47.22134314 9.21357114 -45.76691667 8.66929867 -44.3125 8.125 C-43.2306543 7.72087891 -43.2306543 7.72087891 -42.12695312 7.30859375 C-41.42119141 7.04433594 -40.71542969 6.78007812 -39.98828125 6.5078125 C-39.29162354 6.24822754 -38.59496582 5.98864258 -37.87719727 5.72119141 C-36.41621218 5.15990256 -34.97632504 4.54358441 -33.546875 3.90625 C-29.75919081 2.55848507 -25.90254627 1.98608912 -21.9375 1.375 C-21.08768555 1.24383789 -20.23787109 1.11267578 -19.36230469 0.97753906 C-12.8502952 0.02462243 -6.58065349 -0.37701661 0 0 Z M78 105 C79 107 79 107 79 107 Z M-89 109 C-88 111 -88 111 -88 111 Z M-88 112 C-87.67 113.32 -87.34 114.64 -87 116 C-86.67 115.34 -86.34 114.68 -86 114 C-86.66 113.34 -87.32 112.68 -88 112 Z M59 139 C59.33 139.66 59.66 140.32 60 141 C60.33 140.34 60.66 139.68 61 139 C60.34 139 59.68 139 59 139 Z " fill="#D60101" transform="translate(92,2)"/>
<path d="M0 0 C3.375 0.8125 3.375 0.8125 5.375 2.8125 C7.65093061 2.86502394 7.65093061 2.86502394 10.1875 2.625 C14.27953847 2.52447304 15.04628618 2.55757908 18.4375 5.1875 C20.375 7.8125 20.375 7.8125 21.375 9.8125 C23.293125 10.245625 23.293125 10.245625 25.25 10.6875 C28.00770229 11.32997544 29.20438542 11.66321225 31.375 13.5625 C32.64902217 16.42904988 32.58648404 18.71073415 32.375 21.8125 C33.15875 22.080625 33.9425 22.34875 34.75 22.625 C37.375 23.8125 37.375 23.8125 39.375 26.8125 C39.5 29.22265625 39.5 29.22265625 39.375 31.875 C39.20783198 34.47168441 39.20783198 34.47168441 39.375 36.8125 C40.035 37.4725 40.695 38.1325 41.375 38.8125 C41.640625 40.90625 41.640625 40.90625 41.625 43.3125 C41.63273437 44.50359375 41.63273437 44.50359375 41.640625 45.71875 C41.375 47.8125 41.375 47.8125 39.375 49.8125 C39.32247606 52.08843061 39.32247606 52.08843061 39.5625 54.625 C39.66352536 58.73138386 39.60892526 59.5047036 37 62.9375 C34.375 64.8125 34.375 64.8125 32.375 64.8125 C32.478125 65.699375 32.58125 66.58625 32.6875 67.5 C32.28001428 71.81934858 30.6027297 73.06892975 27.375 75.8125 C29.07600159 80.42832471 31.47932723 84.29027122 34.1328125 88.41015625 C35.375 90.8125 35.375 90.8125 35.375 94.8125 C31.415 94.8125 27.455 94.8125 23.375 94.8125 C23.045 96.4625 22.715 98.1125 22.375 99.8125 C21.3125 102.125 21.3125 102.125 20.375 103.8125 C17.83816878 103.44571705 16.67454849 103.17105208 15.00292969 101.17016602 C14.60493164 100.47592529 14.20693359 99.78168457 13.796875 99.06640625 C13.35859375 98.31166016 12.9203125 97.55691406 12.46875 96.77929688 C12.0253125 95.98587891 11.581875 95.19246094 11.125 94.375 C10.43664062 93.19067383 10.43664062 93.19067383 9.734375 91.98242188 C6.375 86.11851283 6.375 86.11851283 6.375 83.8125 C5.694375 84.328125 5.01375 84.84375 4.3125 85.375 C0.518144 87.23181251 -1.5728584 86.78801557 -5.625 85.8125 C-6.615 85.1525 -7.605 84.4925 -8.625 83.8125 C-9.00011719 85.08673828 -9.00011719 85.08673828 -9.3828125 86.38671875 C-10.73266987 90.1094386 -12.44945606 93.23966802 -14.5 96.625 C-14.83902344 97.20958984 -15.17804688 97.79417969 -15.52734375 98.39648438 C-17.75280554 102.04776484 -18.27631816 102.72532954 -22.625 103.8125 C-24.11 99.3575 -24.11 99.3575 -25.625 94.8125 C-29.585 94.8125 -33.545 94.8125 -37.625 94.8125 C-36.69541397 90.16456984 -35.21284798 86.63462948 -33.0625 82.5 C-32.73314453 81.85482422 -32.40378906 81.20964844 -32.06445312 80.54492188 C-31.25675745 78.96464772 -30.44162387 77.38817895 -29.625 75.8125 C-30.27726562 75.214375 -30.92953125 74.61625 -31.6015625 74 C-33.625 71.8125 -33.625 71.8125 -34 68.8125 C-34.34388305 65.5070785 -34.34388305 65.5070785 -37.625 63.5625 C-39.11 62.69625 -39.11 62.69625 -40.625 61.8125 C-42.15804592 58.74640816 -41.53835742 55.69336673 -41.3671875 52.3203125 C-41.67791977 49.29773499 -42.79418838 48.16985111 -44.625 45.8125 C-44.29772727 39.48522727 -44.29772727 39.48522727 -41.625 36.8125 C-41.53421437 34.53740559 -41.53421437 34.53740559 -41.75 32 C-41.83081416 28.2717732 -41.77121151 27.05954704 -39.8125 23.75 C-37.625 21.8125 -37.625 21.8125 -34.625 20.8125 C-34.16902463 18.79318048 -33.71455668 16.77346478 -33.27734375 14.75 C-32.625 12.8125 -32.625 12.8125 -30.3125 10.9375 C-28.58505975 10.21438548 -26.834714 9.54264624 -25.0625 8.9375 C-22.39332155 7.97731131 -22.39332155 7.97731131 -21 5.1875 C-18.625 2.8125 -18.625 2.8125 -16.0703125 2.59375 C-14.13835712 2.6552446 -12.2072119 2.76566327 -10.28125 2.9296875 C-5.78503395 2.73132503 -4.73747016 -0.24504156 0 0 Z " fill="#D10808" transform="translate(87.625,36.1875)"/>
<path d="M0 0 C3.375 0.8125 3.375 0.8125 5.375 2.8125 C7.65093061 2.86502394 7.65093061 2.86502394 10.1875 2.625 C14.27953847 2.52447304 15.04628618 2.55757908 18.4375 5.1875 C20.375 7.8125 20.375 7.8125 21.375 9.8125 C23.293125 10.245625 23.293125 10.245625 25.25 10.6875 C28.00770229 11.32997544 29.20438542 11.66321225 31.375 13.5625 C32.64902217 16.42904988 32.58648404 18.71073415 32.375 21.8125 C33.15875 22.080625 33.9425 22.34875 34.75 22.625 C37.375 23.8125 37.375 23.8125 39.375 26.8125 C39.5 29.22265625 39.5 29.22265625 39.375 31.875 C39.20783198 34.47168441 39.20783198 34.47168441 39.375 36.8125 C40.035 37.4725 40.695 38.1325 41.375 38.8125 C41.640625 40.90625 41.640625 40.90625 41.625 43.3125 C41.63273437 44.50359375 41.63273437 44.50359375 41.640625 45.71875 C41.375 47.8125 41.375 47.8125 39.375 49.8125 C39.32247606 52.08843061 39.32247606 52.08843061 39.5625 54.625 C39.66352536 58.73138386 39.60892526 59.5047036 37 62.9375 C34.375 64.8125 34.375 64.8125 32.375 64.8125 C32.478125 65.699375 32.58125 66.58625 32.6875 67.5 C32.28001428 71.81934858 30.6027297 73.06892975 27.375 75.8125 C29.07600159 80.42832471 31.47932723 84.29027122 34.1328125 88.41015625 C35.375 90.8125 35.375 90.8125 35.375 94.8125 C31.415 94.8125 27.455 94.8125 23.375 94.8125 C23.045 96.4625 22.715 98.1125 22.375 99.8125 C21.3125 102.125 21.3125 102.125 20.375 103.8125 C17.83816878 103.44571705 16.67454849 103.17105208 15.00292969 101.17016602 C14.60493164 100.47592529 14.20693359 99.78168457 13.796875 99.06640625 C13.35859375 98.31166016 12.9203125 97.55691406 12.46875 96.77929688 C12.0253125 95.98587891 11.581875 95.19246094 11.125 94.375 C10.43664062 93.19067383 10.43664062 93.19067383 9.734375 91.98242188 C6.375 86.11851283 6.375 86.11851283 6.375 83.8125 C5.694375 84.328125 5.01375 84.84375 4.3125 85.375 C0.518144 87.23181251 -1.5728584 86.78801557 -5.625 85.8125 C-6.615 85.1525 -7.605 84.4925 -8.625 83.8125 C-9.00011719 85.08673828 -9.00011719 85.08673828 -9.3828125 86.38671875 C-10.73266987 90.1094386 -12.44945606 93.23966802 -14.5 96.625 C-14.83902344 97.20958984 -15.17804688 97.79417969 -15.52734375 98.39648438 C-17.75280554 102.04776484 -18.27631816 102.72532954 -22.625 103.8125 C-24.11 99.3575 -24.11 99.3575 -25.625 94.8125 C-29.585 94.8125 -33.545 94.8125 -37.625 94.8125 C-36.69541397 90.16456984 -35.21284798 86.63462948 -33.0625 82.5 C-32.73314453 81.85482422 -32.40378906 81.20964844 -32.06445312 80.54492188 C-31.25675745 78.96464772 -30.44162387 77.38817895 -29.625 75.8125 C-30.27726562 75.214375 -30.92953125 74.61625 -31.6015625 74 C-33.625 71.8125 -33.625 71.8125 -34 68.8125 C-34.34388305 65.5070785 -34.34388305 65.5070785 -37.625 63.5625 C-39.11 62.69625 -39.11 62.69625 -40.625 61.8125 C-42.15804592 58.74640816 -41.53835742 55.69336673 -41.3671875 52.3203125 C-41.67791977 49.29773499 -42.79418838 48.16985111 -44.625 45.8125 C-44.29772727 39.48522727 -44.29772727 39.48522727 -41.625 36.8125 C-41.53421437 34.53740559 -41.53421437 34.53740559 -41.75 32 C-41.83081416 28.2717732 -41.77121151 27.05954704 -39.8125 23.75 C-37.625 21.8125 -37.625 21.8125 -34.625 20.8125 C-34.16902463 18.79318048 -33.71455668 16.77346478 -33.27734375 14.75 C-32.625 12.8125 -32.625 12.8125 -30.3125 10.9375 C-28.58505975 10.21438548 -26.834714 9.54264624 -25.0625 8.9375 C-22.39332155 7.97731131 -22.39332155 7.97731131 -21 5.1875 C-18.625 2.8125 -18.625 2.8125 -16.0703125 2.59375 C-14.13835712 2.6552446 -12.2072119 2.76566327 -10.28125 2.9296875 C-5.78503395 2.73132503 -4.73747016 -0.24504156 0 0 Z M-5.625 6.8125 C-8.12109375 6.83203125 -8.12109375 6.83203125 -11.0625 6.625 C-14.00936769 6.50954679 -14.00936769 6.50954679 -16.625 6.8125 C-18.27099355 9.08268168 -18.27099355 9.08268168 -19.625 11.8125 C-21.9375 12.7890625 -21.9375 12.7890625 -24.6875 13.6875 C-27.35198827 14.56241688 -27.35198827 14.56241688 -29.625 15.8125 C-31.32744107 19.30593686 -31.32744107 19.30593686 -31.625 22.8125 C-32.625 24.8125 -32.625 24.8125 -35.1875 25.8125 C-37.86657591 27.53622655 -37.86657591 27.53622655 -37.8828125 30.125 C-37.83643534 31.89763828 -37.74488993 33.66974463 -37.60546875 35.4375 C-37.625 37.8125 -37.625 37.8125 -39.625 40.8125 C-39.95843551 43.35457971 -39.95843551 43.35457971 -39.625 45.8125 C-38.965 46.4725 -38.305 47.1325 -37.625 47.8125 C-37.52430299 50.3649503 -37.69374773 52.85346858 -37.84765625 55.40234375 C-37.84484647 57.86189082 -37.84484647 57.86189082 -36.25 59.515625 C-35.71375 59.94359375 -35.1775 60.3715625 -34.625 60.8125 C-31.94076253 63.17137536 -30.74914536 64.27077481 -29.9375 67.8125 C-28.36835398 71.39911948 -27.62198073 71.52086028 -24.125 72.9375 C-22.93390625 73.34355469 -22.93390625 73.34355469 -21.71875 73.7578125 C-19.625 74.8125 -19.625 74.8125 -18.71875 76.890625 C-18.3578125 77.52484375 -17.996875 78.1590625 -17.625 78.8125 C-14.81015651 79.44344918 -14.81015651 79.44344918 -11.625 79.4375 C-5.81854839 79.61895161 -5.81854839 79.61895161 -3.625 81.8125 C-1.125 82.14583333 -1.125 82.14583333 1.375 81.8125 C2.035 81.1525 2.695 80.4925 3.375 79.8125 C5.14850585 79.84962653 6.92085147 79.96483024 8.6875 80.125 C12.7224942 80.35603028 12.7224942 80.35603028 15.96484375 78.33203125 C16.74173172 77.06337582 17.48668267 75.77463432 18.19921875 74.46875 C19.375 72.8125 19.375 72.8125 22.9375 71.9375 C26.43974246 71.21415884 26.43974246 71.21415884 27.53515625 68.80859375 C28.17990759 67.18235858 28.80101472 65.54655515 29.3984375 63.90234375 C30.375 61.8125 30.375 61.8125 33.125 60.4375 C33.8675 59.90125 34.61 59.365 35.375 58.8125 C35.65436886 55.92568843 35.55901097 53.20042951 35.35546875 50.30859375 C35.375 47.8125 35.375 47.8125 37.375 45.8125 C37.75786803 42.07953674 37.52415785 41.03623677 35.375 37.8125 C35.390625 35.47265625 35.390625 35.47265625 35.625 32.875 C35.76135896 30.2166442 35.76135896 30.2166442 35.375 27.8125 C32.55788354 25.68428116 32.55788354 25.68428116 29.375 23.8125 C28.5546875 21.65234375 28.5546875 21.65234375 27.9375 19.1875 C27.36155277 16.82125333 27.36155277 16.82125333 26.375 14.8125 C22.94044696 13.3310026 22.94044696 13.3310026 19.375 12.8125 C17.07896995 10.99151065 16.034463 9.3016945 14.375 6.8125 C11.77303386 6.52361102 11.77303386 6.52361102 8.875 6.75 C5.90625 6.90234375 5.90625 6.90234375 3.375 6.8125 C2.715 6.1525 2.055 5.4925 1.375 4.8125 C-2.5924509 4.37780472 -2.5924509 4.37780472 -5.625 6.8125 Z " fill="#FBEBEB" transform="translate(87.625,36.1875)"/>
<path d="M0 0 C2.5 0.25 2.5 0.25 4.5 2.25 C7.07252425 2.30258652 7.07252425 2.30258652 9.9375 2.0625 C12.93359375 1.99609375 12.93359375 1.99609375 15.5 2.25 C17.5 4.625 17.5 4.625 18.5 7.25 C21.78463659 9.43975773 24.70696275 10.24806563 28.5 11.25 C28.809375 13.10625 28.809375 13.10625 29.125 15 C29.59115136 17.24133916 29.59115136 17.24133916 30.5 19.25 C31.53125 19.86875 32.5625 20.4875 33.625 21.125 C34.57375 21.82625 35.5225 22.5275 36.5 23.25 C36.85878707 25.88839761 36.7546341 28.26113873 36.515625 30.91015625 C36.27966378 33.52642663 36.27966378 33.52642663 38.5 36.25 C38.75 38.8125 38.75 38.8125 38.5 41.25 C37.51 42.24 37.51 42.24 36.5 43.25 C36.48583564 45.78932883 36.48583564 45.78932883 36.75 48.625 C36.81640625 51.63671875 36.81640625 51.63671875 36.5 54.25 C33.6875 56.4375 33.6875 56.4375 30.5 58.25 C29.6620109 60.16354496 29.6620109 60.16354496 29.125 62.3125 C27.99564658 65.98458925 27.99564658 65.98458925 25.68359375 67.22265625 C24.26211264 67.65983368 22.83328389 68.07375746 21.3984375 68.46484375 C19.10451096 69.18592025 19.10451096 69.18592025 17.6875 72.4375 C16.965625 73.365625 16.24375 74.29375 15.5 75.25 C12.57712135 75.60389114 9.89337698 75.50147804 6.9609375 75.265625 C5.74277344 75.25789063 5.74277344 75.25789063 4.5 75.25 C3.84 75.91 3.18 76.57 2.5 77.25 C0 77.5 0 77.5 -2.5 77.25 C-3.49 76.26 -3.49 76.26 -4.5 75.25 C-7.55550794 74.98181873 -10.58595644 74.935155 -13.65234375 74.88671875 C-16.5 74.25 -16.5 74.25 -18.1328125 71.78515625 C-18.58398438 70.94855469 -19.03515625 70.11195312 -19.5 69.25 C-21.38136007 68.35380092 -21.38136007 68.35380092 -23.4375 68 C-26.24109167 67.12355727 -27.23421009 66.69243798 -28.76953125 64.13671875 C-29.4055616 62.54790987 -29.99131852 60.93768889 -30.515625 59.30859375 C-31.74870643 56.72988774 -32.95043431 56.38085575 -35.5 55.25 C-36.5320149 52.23995654 -36.49164072 49.75680229 -36.4375 46.5625 C-36.11844149 43.16913072 -36.11844149 43.16913072 -38.5 41.25 C-38.88286803 37.51703674 -38.64915785 36.47373677 -36.5 33.25 C-36.44573643 30.83077754 -36.44573643 30.83077754 -36.6875 28.25 C-36.75390625 25.55859375 -36.75390625 25.55859375 -36.5 23.25 C-34.125 21.3125 -34.125 21.3125 -31.5 20.25 C-29.26762637 17.35172077 -29.26762637 17.35172077 -28.9375 13.75 C-27.5 10.25 -27.5 10.25 -25.4765625 9.3046875 C-23.85402024 8.84785521 -22.22468557 8.41455372 -20.58984375 8.00390625 C-18.19537063 7.40890427 -18.19537063 7.40890427 -17.125 4.5625 C-16.58875 3.799375 -16.0525 3.03625 -15.5 2.25 C-12.61241138 1.96612032 -9.88901458 2.06591265 -6.99609375 2.26953125 C-3.6299241 2.24319189 -3.33163488 0.33316349 0 0 Z M-23.5 19.25 C-29.64026311 27.44740709 -31.76640592 34.99211204 -30.5 45.25 C-27.49864069 54.9276113 -21.190006 62.69415354 -12.20703125 67.46875 C-3.57968581 70.7669918 5.17261272 69.9635646 13.5 66.25 C20.87004037 62.2701782 26.77406095 55.60394037 29.828125 47.78125 C32.38918899 38.13259032 30.53729522 29.83708608 25.62109375 21.36328125 C21.23820538 14.930202 15.45913668 10.78451024 7.94921875 8.6875 C-4.93457578 6.38608854 -14.63700881 9.69035448 -23.5 19.25 Z " fill="#CF0C0C" transform="translate(86.5,40.75)"/>
<path d="M0 0 C0.76183594 0.40734375 1.52367187 0.8146875 2.30859375 1.234375 C3.01886719 1.60046875 3.72914062 1.9665625 4.4609375 2.34375 C11.40355665 6.66123292 14.69931207 13.76697128 17.30859375 21.234375 C19.12844563 30.77481059 16.60015117 38.26783601 11.30859375 46.234375 C6.67864583 52.21337534 1.10311245 55.72031646 -6.06640625 57.984375 C-15.21274705 58.85545508 -22.85740249 58.71485771 -30.5234375 53.1953125 C-37.97214019 46.91327409 -42.65313898 40.80466008 -44.19140625 31.0703125 C-44.72887627 21.68698172 -41.7203143 14.43720731 -36.015625 7.0703125 C-26.58711607 -3.11681209 -12.6167694 -5.89455466 0 0 Z M-35.5 13.42578125 C-39.88258187 20.07868422 -39.32612847 27.59329592 -38.69140625 35.234375 C-36.73268885 43.20561099 -30.23495417 48.08045371 -23.50390625 52.171875 C-16.01244118 54.25966035 -8.49769986 54.47966188 -1.31640625 51.234375 C4.41894971 47.93701237 8.93386521 43.56970633 11.47265625 37.41015625 C13.25949913 30.62182324 13.7010312 22.33685525 10.80859375 15.796875 C7.01972989 9.53584466 0.99582571 4.99983247 -5.69140625 2.234375 C-18.71347817 0.49360062 -26.98125654 3.30522279 -35.5 13.42578125 Z " fill="#FAE5E5" transform="translate(99.69140625,51.765625)"/>
<path d="M0 0 C1.859375 0.25390625 1.859375 0.25390625 4 1 C5.265625 2.77734375 5.265625 2.77734375 6.25 4.9375 C6.58515625 5.64777344 6.9203125 6.35804687 7.265625 7.08984375 C8 9 8 9 8 11 C9.15628906 11.09087891 9.15628906 11.09087891 10.3359375 11.18359375 C11.33882812 11.26738281 12.34171875 11.35117188 13.375 11.4375 C14.87160156 11.55931641 14.87160156 11.55931641 16.3984375 11.68359375 C19 12 19 12 21 13 C20.39778814 16.61327115 20.07588902 16.94114729 16.9375 19.375 C14.33069051 21.76405691 14.0114499 22.89842467 13.60546875 26.5 C13.62319669 30.01722245 13.74056068 33.49276476 14 37 C8.3203125 36.203125 8.3203125 36.203125 5.4375 34.375 C3.10248645 32.77173473 3.10248645 32.77173473 0.5 33.125 C-2.09522528 33.93542452 -2.09522528 33.93542452 -4.5625 35.5625 C-7 37 -7 37 -11 37 C-10.91878906 36.07058594 -10.83757812 35.14117187 -10.75390625 34.18359375 C-10.13798701 27.07002773 -10.13798701 27.07002773 -12.59375 20.65234375 C-14.50962641 18.85764863 -14.50962641 18.85764863 -16.56640625 17.4296875 C-17.03949219 16.95789063 -17.51257813 16.48609375 -18 16 C-17.67 14.68 -17.34 13.36 -17 12 C-11.06 11.505 -11.06 11.505 -5 11 C-4.731875 10.113125 -4.46375 9.22625 -4.1875 8.3125 C-3.08289181 5.23122452 -1.77150856 2.73778595 0 0 Z " fill="#FCEDEC" transform="translate(85,60)"/>
<path d="M0 0 C3.375 0.8125 3.375 0.8125 5.375 2.8125 C7.65093061 2.86502394 7.65093061 2.86502394 10.1875 2.625 C14.27953847 2.52447304 15.04628618 2.55757908 18.4375 5.1875 C20.375 7.8125 20.375 7.8125 21.375 9.8125 C23.293125 10.245625 23.293125 10.245625 25.25 10.6875 C28.00770229 11.32997544 29.20438542 11.66321225 31.375 13.5625 C32.64902217 16.42904988 32.58648404 18.71073415 32.375 21.8125 C33.15875 22.080625 33.9425 22.34875 34.75 22.625 C37.375 23.8125 37.375 23.8125 39.375 26.8125 C39.5 29.22265625 39.5 29.22265625 39.375 31.875 C39.20783198 34.47168441 39.20783198 34.47168441 39.375 36.8125 C40.035 37.4725 40.695 38.1325 41.375 38.8125 C41.640625 40.90625 41.640625 40.90625 41.625 43.3125 C41.63273437 44.50359375 41.63273437 44.50359375 41.640625 45.71875 C41.375 47.8125 41.375 47.8125 39.375 49.8125 C39.32247606 52.08843061 39.32247606 52.08843061 39.5625 54.625 C39.66352536 58.73138386 39.60892526 59.5047036 37 62.9375 C34.375 64.8125 34.375 64.8125 32.375 64.8125 C32.4575 65.72 32.54 66.6275 32.625 67.5625 C32.375 70.8125 32.375 70.8125 30.375 73.1875 C29.715 73.72375 29.055 74.26 28.375 74.8125 C28.375 73.8225 28.375 72.8325 28.375 71.8125 C26.89 71.3175 26.89 71.3175 25.375 70.8125 C28.60854839 62.19572581 28.60854839 62.19572581 32.125 60.4375 C32.8675 59.90125 33.61 59.365 34.375 58.8125 C34.65436886 55.92568843 34.55901097 53.20042951 34.35546875 50.30859375 C34.375 47.8125 34.375 47.8125 36.375 45.8125 C36.75786803 42.07953674 36.52415785 41.03623677 34.375 37.8125 C34.390625 35.47265625 34.390625 35.47265625 34.625 32.875 C34.76641407 30.21911899 34.76641407 30.21911899 34.375 27.8125 C31.52248615 25.63303354 31.52248615 25.63303354 28.375 23.8125 C27.24776364 21.13009495 26.85798716 18.71042299 26.375 15.8125 C25.3025 15.565 24.23 15.3175 23.125 15.0625 C19.34711098 13.80320366 17.83852396 12.84452948 15.375 9.8125 C14.88 8.8225 14.88 8.8225 14.375 7.8125 C13.21871094 7.84730469 13.21871094 7.84730469 12.0390625 7.8828125 C11.03617188 7.90085937 10.03328125 7.91890625 9 7.9375 C8.00226563 7.96070313 7.00453125 7.98390625 5.9765625 8.0078125 C3.375 7.8125 3.375 7.8125 1.375 5.8125 C-1.125 5.47916667 -1.125 5.47916667 -3.625 5.8125 C-4.285 6.4725 -4.945 7.1325 -5.625 7.8125 C-8.12109375 7.83203125 -8.12109375 7.83203125 -11.0625 7.625 C-14.00686337 7.50443861 -14.00686337 7.50443861 -16.625 7.8125 C-18.32472025 10.11730288 -18.32472025 10.11730288 -19.625 12.8125 C-21.71484375 13.56640625 -21.71484375 13.56640625 -24.1875 14.1875 C-26.58116112 14.79114644 -26.58116112 14.79114644 -28.625 15.8125 C-30.18689807 19.23639165 -30.18689807 19.23639165 -30.625 22.8125 C-32.6322908 25.8234362 -33.46384224 26.44266497 -36.625 27.8125 C-36.59019531 28.49957031 -36.55539063 29.18664062 -36.51953125 29.89453125 C-36.49246094 30.79558594 -36.46539062 31.69664063 -36.4375 32.625 C-36.40269531 33.51832031 -36.36789063 34.41164062 -36.33203125 35.33203125 C-36.67418998 38.22897515 -37.37893573 39.03805028 -39.625 40.8125 C-39.625 39.8225 -39.625 38.8325 -39.625 37.8125 C-40.285 37.4825 -40.945 37.1525 -41.625 36.8125 C-42.25018714 27.86885068 -42.25018714 27.86885068 -39.8125 23.75 C-37.625 21.8125 -37.625 21.8125 -34.625 20.8125 C-34.16902463 18.79318048 -33.71455668 16.77346478 -33.27734375 14.75 C-32.625 12.8125 -32.625 12.8125 -30.3125 10.9375 C-28.58505975 10.21438548 -26.834714 9.54264624 -25.0625 8.9375 C-22.39332155 7.97731131 -22.39332155 7.97731131 -21 5.1875 C-18.625 2.8125 -18.625 2.8125 -16.0703125 2.59375 C-14.13835712 2.6552446 -12.2072119 2.76566327 -10.28125 2.9296875 C-5.78503395 2.73132503 -4.73747016 -0.24504156 0 0 Z " fill="#FBE8E9" transform="translate(87.625,36.1875)"/>
<path d="M0 0 C2.15377564 2.62198774 3.40072174 4.64404172 4 8 C5.423125 7.9690625 5.423125 7.9690625 6.875 7.9375 C10 8 10 8 12 9 C10 13 10 13 8.875 14.8125 C7.64001129 17.89997177 7.87354812 20.71225123 8 24 C7.0925 23.484375 6.185 22.96875 5.25 22.4375 C2.2741859 20.80675458 2.2741859 20.80675458 -0.0625 21.1875 C-0.701875 21.455625 -1.34125 21.72375 -2 22 C-2.9075 22.350625 -3.815 22.70125 -4.75 23.0625 C-5.86375 23.5265625 -5.86375 23.5265625 -7 24 C-6.94199219 23.41992188 -6.88398437 22.83984375 -6.82421875 22.2421875 C-6.56736934 17.79502351 -6.52746015 14.92918765 -9.5 11.4375 C-10.325 10.633125 -11.15 9.82875 -12 9 C-11.07767578 8.77957031 -11.07767578 8.77957031 -10.13671875 8.5546875 C-4.60212048 7.07960854 -4.60212048 7.07960854 -0.9375 2.8125 C-0.628125 1.884375 -0.31875 0.95625 0 0 Z " fill="#D00F0F" transform="translate(86,67)"/>
<path d="M0 0 C0.66 0 1.32 0 2 0 C3.76171875 2.5546875 3.76171875 2.5546875 5.6875 5.875 C6.33074219 6.96554688 6.97398438 8.05609375 7.63671875 9.1796875 C8.08660156 10.11039063 8.53648438 11.04109375 9 12 C8.67 12.66 8.34 13.32 8 14 C5.69 14 3.38 14 1 14 C0.34 15.65 -0.32 17.3 -1 19 C-4.6607519 17.77974937 -4.92339441 16.873509 -6.6875 13.5625 C-7.12449219 12.75941406 -7.56148438 11.95632812 -8.01171875 11.12890625 C-9 9 -9 9 -9 7 C-7.88625 6.5875 -6.7725 6.175 -5.625 5.75 C-3.00679305 4.64453484 -2.16506911 4.25119213 -0.5625 1.8125 C-0.376875 1.214375 -0.19125 0.61625 0 0 Z " fill="#CD0D0D" transform="translate(108,113)"/>
<path d="M0 0 C3 1 3 1 4.375 3.5 C5.77933274 6.24852772 5.77933274 6.24852772 8.6875 6.8125 C9.8321875 6.9053125 9.8321875 6.9053125 11 7 C9.68448876 11.60428934 7.90803514 15.18320388 5 19 C4.34 19 3.68 19 3 19 C2.34 17.35 1.68 15.7 1 14 C-1.31 13.67 -3.62 13.34 -6 13 C-4.58707905 8.1725201 -2.57025846 4.2837641 0 0 Z " fill="#CF0C0D" transform="translate(63,113)"/>
<path d="M0 0 C0 0.66 0 1.32 0 2 C-0.94875 2.28875 -1.8975 2.5775 -2.875 2.875 C-6.05211578 3.76825109 -6.05211578 3.76825109 -8 6 C-10.58064129 6.14497985 -13.04943884 6.18677545 -15.625 6.125 C-16.33140625 6.11597656 -17.0378125 6.10695313 -17.765625 6.09765625 C-19.51056098 6.07407603 -21.25532295 6.03820461 -23 6 C-20.64064748 2.15456181 -20.64064748 2.15456181 -17.765625 1.4609375 C-16.93546875 1.43257812 -16.1053125 1.40421875 -15.25 1.375 C-12.00075955 1.18526333 -9.16111128 0.87924076 -6.0625 -0.125 C-3 -1 -3 -1 0 0 Z " fill="#FCF6F6" transform="translate(90,38)"/>
<path d="M0 0 C1.0725 0.103125 2.145 0.20625 3.25 0.3125 C3.25 0.6425 3.25 0.9725 3.25 1.3125 C1.5484375 1.7765625 1.5484375 1.7765625 -0.1875 2.25 C-3.53775099 2.94174531 -3.53775099 2.94174531 -4.75 4.3125 C-4.09 4.6425 -3.43 4.9725 -2.75 5.3125 C-3.1875 7.625 -3.1875 7.625 -4.75 10.3125 C-7.64055476 11.91333561 -10.47323946 12.87598661 -13.75 13.3125 C-16.3125 12 -16.3125 12 -17.75 10.3125 C-15.25608191 8.74489434 -12.98315315 7.39211327 -10.1875 6.4375 C-7.52190439 5.45128565 -7.52190439 5.45128565 -5.875 2.6875 C-3.75 0.3125 -3.75 0.3125 0 0 Z " fill="#F9DDDD" transform="translate(72.75,38.6875)"/>
<path d="M0 0 C0.66 0.66 1.32 1.32 2 2 C1.8125 5.5 1.8125 5.5 1 9 C-2 11 -2 11 -6 11 C-5.17857636 6.56431237 -3.17658845 3.17658845 0 0 Z " fill="#FFFDFD" transform="translate(166,121)"/>
<path d="M0 0 C2 2 2 2 2.125 5.625 C2.08375 6.73875 2.0425 7.8525 2 9 C-0.475 8.01 -0.475 8.01 -3 7 C-2.01 6.67 -1.02 6.34 0 6 C0 4.02 0 2.04 0 0 Z " fill="#C53532" transform="translate(92,82)"/>
<path d="M0 0 C2 1 2 1 2 1 Z " fill="#D70000" transform="translate(40,159)"/>
<path d="" fill="#D70000" transform="translate(0,0)"/>
<path d="" fill="#D70000" transform="translate(0,0)"/>
<path d="" fill="#D70000" transform="translate(0,0)"/>
<path d="" fill="#D70000" transform="translate(0,0)"/>
<path d="" fill="#D70000" transform="translate(0,0)"/>
<path d="" fill="#D70000" transform="translate(0,0)"/>
<path d="" fill="#D70000" transform="translate(0,0)"/>
<path d="" fill="#FFFFFF" transform="translate(0,0)"/>
<path d="" fill="#D70000" transform="translate(0,0)"/>
<path d="" fill="#D70000" transform="translate(0,0)"/>
</svg>
